<mxfile host="app.diagrams.net" agent="Mozilla/5.0 (X11; Linux x86_64) AppleWebKit/537.36 (KHTML, like Gecko) Chrome/131.0.0.0 Safari/537.36" version="26.0.4">
  <diagram name="Page-1" id="yms-EdbSCjYSapsheQhp">
    <mxGraphModel dx="989" dy="539" grid="1" gridSize="10" guides="1" tooltips="1" connect="1" arrows="1" fold="1" page="1" pageScale="1" pageWidth="850" pageHeight="1100" math="0" shadow="0">
      <root>
        <mxCell id="0" />
        <mxCell id="1" parent="0" />
        <mxCell id="LHcCrd6WPen3PEoSXZ4B-5" style="edgeStyle=orthogonalEdgeStyle;rounded=0;orthogonalLoop=1;jettySize=auto;html=1;entryX=0;entryY=0.5;entryDx=0;entryDy=0;curved=1;" parent="1" source="LHcCrd6WPen3PEoSXZ4B-1" target="LHcCrd6WPen3PEoSXZ4B-3" edge="1">
          <mxGeometry relative="1" as="geometry" />
        </mxCell>
        <mxCell id="LHcCrd6WPen3PEoSXZ4B-7" style="edgeStyle=orthogonalEdgeStyle;rounded=0;orthogonalLoop=1;jettySize=auto;html=1;entryX=0;entryY=0.5;entryDx=0;entryDy=0;curved=1;" parent="1" source="LHcCrd6WPen3PEoSXZ4B-1" target="LHcCrd6WPen3PEoSXZ4B-2" edge="1">
          <mxGeometry relative="1" as="geometry" />
        </mxCell>
        <mxCell id="LHcCrd6WPen3PEoSXZ4B-1" value="NotLogged User" style="shape=umlActor;html=1;verticalLabelPosition=bottom;verticalAlign=top;align=center;" parent="1" vertex="1">
          <mxGeometry x="130" y="395" width="30" height="60" as="geometry" />
        </mxCell>
        <mxCell id="LHcCrd6WPen3PEoSXZ4B-13" style="edgeStyle=orthogonalEdgeStyle;rounded=0;orthogonalLoop=1;jettySize=auto;html=1;curved=1;" parent="1" source="LHcCrd6WPen3PEoSXZ4B-2" target="LHcCrd6WPen3PEoSXZ4B-12" edge="1">
          <mxGeometry relative="1" as="geometry" />
        </mxCell>
        <mxCell id="LHcCrd6WPen3PEoSXZ4B-15" style="edgeStyle=orthogonalEdgeStyle;rounded=0;orthogonalLoop=1;jettySize=auto;html=1;exitX=0;exitY=0.5;exitDx=0;exitDy=0;curved=1;" parent="1" source="LHcCrd6WPen3PEoSXZ4B-6" target="LHcCrd6WPen3PEoSXZ4B-1" edge="1">
          <mxGeometry relative="1" as="geometry" />
        </mxCell>
        <mxCell id="LHcCrd6WPen3PEoSXZ4B-14" style="edgeStyle=orthogonalEdgeStyle;rounded=0;orthogonalLoop=1;jettySize=auto;html=1;entryX=1;entryY=0.5;entryDx=0;entryDy=0;curved=1;" parent="1" source="LHcCrd6WPen3PEoSXZ4B-12" target="LHcCrd6WPen3PEoSXZ4B-6" edge="1">
          <mxGeometry relative="1" as="geometry" />
        </mxCell>
        <mxCell id="LHcCrd6WPen3PEoSXZ4B-12" value="Logged User" style="shape=umlActor;html=1;verticalLabelPosition=bottom;verticalAlign=top;align=center;" parent="1" vertex="1">
          <mxGeometry x="640" y="395" width="30" height="60" as="geometry" />
        </mxCell>
        <mxCell id="d7bzs_iOnZKz8pWSDZwi-1" value="Authentication" style="swimlane;whiteSpace=wrap;html=1;" vertex="1" parent="1">
          <mxGeometry x="300" y="150" width="200" height="400" as="geometry">
            <mxRectangle x="300" y="150" width="140" height="30" as="alternateBounds" />
          </mxGeometry>
        </mxCell>
        <mxCell id="LHcCrd6WPen3PEoSXZ4B-3" value="register to system" style="ellipse;whiteSpace=wrap;html=1;" parent="d7bzs_iOnZKz8pWSDZwi-1" vertex="1">
          <mxGeometry x="30" y="80" width="140" height="70" as="geometry" />
        </mxCell>
        <mxCell id="LHcCrd6WPen3PEoSXZ4B-2" value="login to system" style="ellipse;whiteSpace=wrap;html=1;" parent="d7bzs_iOnZKz8pWSDZwi-1" vertex="1">
          <mxGeometry x="30" y="160" width="140" height="70" as="geometry" />
        </mxCell>
        <mxCell id="d7bzs_iOnZKz8pWSDZwi-2" style="edgeStyle=orthogonalEdgeStyle;rounded=0;orthogonalLoop=1;jettySize=auto;html=1;entryX=0.5;entryY=1;entryDx=0;entryDy=0;dashed=1;" edge="1" parent="d7bzs_iOnZKz8pWSDZwi-1" source="LHcCrd6WPen3PEoSXZ4B-6" target="LHcCrd6WPen3PEoSXZ4B-2">
          <mxGeometry relative="1" as="geometry" />
        </mxCell>
        <mxCell id="d7bzs_iOnZKz8pWSDZwi-3" value="&amp;lt;&amp;lt;include&amp;gt;&amp;gt;" style="edgeLabel;html=1;align=center;verticalAlign=middle;resizable=0;points=[];" vertex="1" connectable="0" parent="d7bzs_iOnZKz8pWSDZwi-2">
          <mxGeometry x="-0.2569" relative="1" as="geometry">
            <mxPoint as="offset" />
          </mxGeometry>
        </mxCell>
        <mxCell id="LHcCrd6WPen3PEoSXZ4B-6" value="logout to system" style="ellipse;whiteSpace=wrap;html=1;" parent="d7bzs_iOnZKz8pWSDZwi-1" vertex="1">
          <mxGeometry x="30" y="270" width="140" height="70" as="geometry" />
        </mxCell>
      </root>
    </mxGraphModel>
  </diagram>
</mxfile>
